<svg xmlns="http://www.w3.org/2000/svg" viewBox="0 0 24 24" enable-background="new 0 0 24 24" width="48" height="48" style="fill: rgb(255, 255, 255);">
    <path d="M 7.59375 3 L 9.0625 5 L 12 5 L 13 5 C 16.325562 5 19 7.674438 19 11 L 19 15 L 16 15 L 20 20.46875 L 24 15 L 21 15 L 21 11 C 21 6.593562 17.406438 3 13 3 L 12 3 L 7.59375 3 z M 4 3.53125 L 0 9 L 3 9 L 3 13 C 3 17.406438 6.593562 21 11 21 L 12 21 L 14 21 L 16.40625 21 L 14.9375 19 L 14 19 L 12 19 L 11 19 C 7.674438 19 5 16.325562 5 13 L 5 9 L 8 9 L 4 3.53125 z"/>
</svg>